
        <svg xmlns="http://www.w3.org/2000/svg" xmlns:xlink="http://www.w3.org/1999/xlink" version="1.1" width="3171.4285714285716" 
        height="1428.6491413112817" viewBox="0 0 3171.4285714285716 1428.6491413112817">
			
			<g transform="scale(8.571428571428573) translate(10, 10)">
				<defs id="SvgjsDefs1813"></defs><g id="SvgjsG1814" featureKey="symbolFeature-0" transform="matrix(0.49413984474716177,0,0,0.49413984474716177,-305.9951003083893,-60.21934263131536)" fill="#8c52ff"><path xmlns="http://www.w3.org/2000/svg" d="M1078.314,186.338h0.17h0.029l-45.568-62.437l-0.318-0.423l-0.229-0.011l-3.25-1.6h-54.113h-1.154h-54.129l-3.248,1.601  l-0.229,0.011l-0.318,0.42l-45.768,62.438l0,0l0,0l0,0l103.277,114.461l105.023-114.461H1078.314z M927.77,191.867h41.701  l0.078,2.114l-0.078,81.245L927.77,191.867z M979.443,275.228l-0.076-81.235l0.076-2.125h41.705L979.443,275.228z M1031.479,181.852  l-22.936-25.578l19.99-21.609l35.748,47.188H1031.479z M1017.873,181.852h-38.246v-41.742L1017.873,181.852z M969.287,181.852  h-38.242l38.242-41.742V181.852z M917.432,181.852h-32.803l35.74-47.188l20,21.611L917.432,181.852z M1032.326,191.867h29.938  l-66.939,73.992L1032.326,191.867z M1001.492,149.147l-15.816-17.264h31.787L1001.492,149.147z M947.422,149.149l-15.979-17.266  h31.797L947.422,149.149z M886.65,191.867h29.93l37.006,73.987L886.65,191.867z"></path></g><g id="SvgjsG1815" featureKey="nameFeature-0" transform="matrix(0.7535253168948196,0,0,0.7535253168948196,-0.30140983931083126,99.83178760573455)" fill="#111111"><path d="M30.56 11.52 l0 1.04 c-0.76 0 -1.68 0.24 -2 0.8 l-0.12 0.24 l0 0.04 l-9.96 26.56 l-6.2 0 l-9.92 -26.72 l0.04 0.2 c-0.12 -0.8 -1.12 -1.12 -2 -1.12 l0 -1.04 l7.8 0 l0 1.04 c-0.88 0 -1.12 0.32 -0.92 1.12 l8.44 22.72 l8.88 -23.16 c0 -0.48 -0.32 -0.68 -1 -0.68 l0 -1.04 l6.96 0 z M28.44 13.68 l0 -0.04 l0 0.04 z M66.165 13 c-0.92 0 -1.76 0.32 -1.72 1.12 l0 23.92 c-0.04 0.8 0.8 1.12 1.72 1.12 l0 1.04 l-7.56 0 l0 -1.04 c0.92 0 1.76 -0.32 1.72 -1.12 l0 -20.8 l-8.08 14.72 l-2 0 l-8.68 -14.84 l0 20.92 c-0.04 0.8 0.8 1.12 1.72 1.12 l0 1.04 l-7.08 0 l0 -1.04 c0.92 0 1.76 -0.32 1.72 -1.12 l0 -23.92 c0.04 -0.8 -0.8 -1.12 -1.72 -1.12 l0 -1.04 l6.96 0 l8.24 14.68 l7.84 -14.68 l6.92 0 l0 1.04 z M90.49 34.68 l1.36 0 l0 5.52 l-19.24 0 l0 -1.04 c0.84 0 1.68 -0.32 1.72 -1.12 l0 -24.28 c0.04 -0.8 -0.8 -1.12 -1.72 -1.12 l0 -1.04 l7.72 0 l0 1.04 c-0.88 0 -1.64 0.28 -1.72 0.96 l0.04 23.8 l8.92 0 c2.04 0 2.88 -1.92 2.92 -2.72 z M78.61 13.64 l0 0.12 l0 -0.12 z M110.74 11.64 l21.64 0 l0 5.48 l-1.36 0 c-0.08 -0.8 -0.92 -2.72 -2.92 -2.72 l-4.24 0 l0 23.64 c-0.04 0.8 0.8 1.12 1.72 1.12 l0 1.04 l-8.16 0 l0 -1.04 c0.92 0 1.76 -0.32 1.72 -1.12 l0 -23.64 l-4.12 0 c-2 0 -2.84 1.92 -2.92 2.72 l-1.36 0 l0 -5.48 z M165.185 38.36 c0.28 0.56 1.04 0.8 1.8 0.8 l0 1.04 l-7.72 0 l0 -1.04 c0.8 0 1.08 -0.28 0.96 -0.92 l-2.96 -8.08 l-11.88 0 l-3.12 8.2 c-0.08 0.56 0.2 0.8 0.96 0.8 l0 1.04 l-6.4 0 l0 -1.04 c0.72 0 1.48 -0.2 1.8 -0.72 l0.12 -0.32 l0 -0.08 l0 0.04 l10 -25.28 l6 -1.96 l10.32 27.28 l0 -0.08 l0 0.08 z M145.785 28.240000000000002 l10.96 0 l-5.28 -14.36 z M196.39 38.12 c0.6 0.68 1.32 0.64 1.76 0.64 l0 1.44 l-8.48 0 l0 -1.44 c0.44 0 1.32 0 1.04 -0.72 l-6.6 -9.68 l-6.08 9.76 c-0.32 0.68 0.64 0.64 1.08 0.64 l0 1.44 l-7.68 0 l0 -1.44 c0.48 0 1.56 0.12 2.32 -0.88 l-0.08 0.16 l8.32 -12.4 l-8.24 -12.32 c-0.56 -0.48 -1.36 -0.44 -1.76 -0.44 l0 -1.44 l8.24 0 l0 1.44 c-0.48 0 -1.2 0 -0.92 0.84 l-0.04 -0.04 l5.52 8.32 l6 -8.44 c0.2 -0.64 -0.8 -0.6 -1.24 -0.6 l0 -1.44 l7.68 0.04 l0 1.4 c-0.48 0 -1.48 -0.12 -2.24 0.88 l0.12 -0.28 l-7.96 11.4 z M233.19999999999996 18.76 c-0.32 -3.4 -3.04 -5.28 -6.72 -5.12 c-4.8 0.24 -6.28 5.4 -2.32 7.52 c0.92 0.48 2.56 1.2 5.08 2.48 c3.4 1.72 7.32 4.16 7.4 8.04 c0.12 5.28 -2.92 8.84 -10 8.84 c-4.72 0 -6.92 -1.44 -8.4 -2.84 l0 -5 l1.4 0 c0.4 3.2 3.56 5.4 6.84 5.4 c2.96 0 5.2 -1.28 5.24 -4.76 c0.08 -4.12 -3.08 -5.24 -6.48 -6.76 c-2.24 -1 -6.4 -2.44 -7.24 -6.28 c-1.12 -5.16 3.4 -8.84 7.96 -9.16 c3.36 -0.24 6.16 0.72 8.56 2.6 c0 0 0.12 3.92 0.12 5.04 l-1.44 0 z M257.04499999999996 41.04 c-8.16 0 -13.96 -6.8 -13.96 -15.16 c0 -7.96 5.8 -14.76 13.96 -14.76 c8.12 0 13.92 6.8 13.92 14.76 c0 8.36 -5.8 15.16 -13.92 15.16 z M257.205 38.84 c5.44 0 8.6 -6.16 8.6 -12.96 c0 -6.36 -3.16 -12.52 -8.6 -12.52 s-8.6 6.16 -8.6 12.52 c0 6.8 3.16 12.96 8.6 12.96 z M295.28999999999996 34.68 l1.36 0 l0 5.52 l-19.24 0 l0 -1.04 c0.84 0 1.68 -0.32 1.72 -1.12 l0 -24.28 c0.04 -0.8 -0.8 -1.12 -1.72 -1.12 l0 -1.04 l7.72 0 l0 1.04 c-0.88 0 -1.64 0.28 -1.72 0.96 l0.04 23.8 l8.92 0 c2.04 0 2.88 -1.92 2.92 -2.72 z M283.40999999999997 13.64 l0 0.12 l0 -0.12 z M328.41499999999996 11.600000000000001 l0 1.04 c-0.92 0 -1.76 0.32 -1.72 1.12 l0 16.32 c0 4.4 -2.08 10.68 -11.04 10.68 c-9.28 0 -11.64 -6.28 -11.64 -10 l0 -17 c0.04 -0.8 -0.8 -1.12 -1.72 -1.12 l0 -1.04 l8.24 0 l0 1.04 c-0.92 0 -1.76 0.32 -1.72 1.12 l0 16.64 c0 3.52 1.28 7.56 6.84 7.56 s6.4 -4.04 6.4 -7.36 l0 -16.84 c0.04 -0.8 -0.8 -1.12 -1.72 -1.12 l0 -1.04 l8.08 0 z M334.05999999999995 11.64 l21.64 0 l0 5.48 l-1.36 0 c-0.08 -0.8 -0.92 -2.72 -2.92 -2.72 l-4.24 0 l0 23.64 c-0.04 0.8 0.8 1.12 1.72 1.12 l0 1.04 l-8.16 0 l0 -1.04 c0.92 0 1.76 -0.32 1.72 -1.12 l0 -23.64 l-4.12 0 c-2 0 -2.84 1.92 -2.92 2.72 l-1.36 0 l0 -5.48 z M369.22499999999997 12.68 c-0.88 0 -1.72 0.32 -1.72 1.12 l0 24.24 c0 0.8 0.84 1.12 1.72 1.12 l0 1.04 l-7.88 0 l0 -1.04 c0.88 0 1.72 -0.32 1.72 -1.12 l0 -24.24 c0 -0.8 -0.84 -1.12 -1.72 -1.12 l0 -1.04 l7.88 0 l0 1.04 z M391.23 41.04 c-8.16 0 -13.96 -6.8 -13.96 -15.16 c0 -7.96 5.8 -14.76 13.96 -14.76 c8.12 0 13.92 6.8 13.92 14.76 c0 8.36 -5.8 15.16 -13.92 15.16 z M391.39 38.84 c5.44 0 8.6 -6.16 8.6 -12.96 c0 -6.36 -3.16 -12.52 -8.6 -12.52 s-8.6 6.16 -8.6 12.52 c0 6.8 3.16 12.96 8.6 12.96 z M439.635 12.04 l0 1.04 c-0.88 0 -1.68 0.28 -1.72 1 l0 26.12 l-2.88 0 l-17.76 -20.04 l0 17.96 c0.04 0.72 0.84 1 1.72 1 l0 1.08 l-7.4 0 l0 -1.08 c0.88 0 1.68 -0.28 1.72 -1 l0 -24.04 c-0.04 -0.72 -0.84 -1 -1.72 -1 l0 -1.04 l4.08 0 l18.6 20.56 l0 -18.52 c-0.04 -0.72 -0.84 -1 -1.72 -1 l0 -1.04 l7.08 0 z M461.44 18.76 c-0.32 -3.4 -3.04 -5.28 -6.72 -5.12 c-4.8 0.24 -6.28 5.4 -2.32 7.52 c0.92 0.48 2.56 1.2 5.08 2.48 c3.4 1.72 7.32 4.16 7.4 8.04 c0.12 5.28 -2.92 8.84 -10 8.84 c-4.72 0 -6.92 -1.44 -8.4 -2.84 l0 -5 l1.4 0 c0.4 3.2 3.56 5.4 6.84 5.4 c2.96 0 5.2 -1.28 5.24 -4.76 c0.08 -4.12 -3.08 -5.24 -6.48 -6.76 c-2.24 -1 -6.4 -2.44 -7.24 -6.28 c-1.12 -5.16 3.4 -8.84 7.96 -9.16 c3.36 -0.24 6.16 0.72 8.56 2.6 c0 0 0.12 3.92 0.12 5.04 l-1.44 0 z"></path></g><g id="SvgjsG1816" featureKey="sloganFeature-0" transform="matrix(0.45478632701662713,0,0,0.45478632701662713,95.48154359370682,137.51633702130653)" fill="#111111"><path d="M1.14 20 l0 -12.24 l5.8 0 c2.28 0 4.22 1.72 4.22 4.02 c0 2.32 -2 4.02 -4.22 4.02 l-2.8 0 l0 4.2 l-3 0 z M6.94 10.54 l-2.8 0 l0 2.48 l2.8 0 c0.7 0 1.22 -0.54 1.22 -1.24 s-0.52 -1.24 -1.22 -1.24 z M15.66 10.58 l0 2.92 l2.8 0 c0.92 0 1.46 -0.54 1.46 -1.46 s-0.54 -1.46 -1.46 -1.46 l-2.8 0 z M20.2 15.48 c0.56 0.76 1.12 1.52 1.7 2.26 c0.56 0.74 1.12 1.5 1.68 2.26 l-3.66 0 c-0.72 -0.96 -1.42 -1.92 -2.12 -2.88 c-0.7 -0.94 -1.42 -1.9 -2.14 -2.86 l0 5.74 l-3 0 l0 -12.24 l5.8 0 c2.28 0 4.22 1.74 4.22 4.04 c0 1.62 -1 3.04 -2.48 3.68 z M24.84 7.76 l9.1 0 l0 2.78 l-6.1 0 l0 1.96 l4.9 0 l0 2.78 l-4.9 0 l0 1.94 l6.1 0 l0 2.78 l-9.1 0 l0 -12.24 z M45.26 16.58 l0 3.08 c-1.24 0.34 -2.48 0.48 -3.76 0.48 c-3.76 0 -6.28 -2.58 -6.28 -6.24 c0 -3.76 2.62 -6.24 6.26 -6.24 c1.26 0 2.58 0.1 3.78 0.48 l0 3.08 c-0.98 -0.48 -2.52 -0.66 -3.6 -0.66 c-2.44 0 -3.44 1 -3.44 3.32 c0 2.46 1.18 3.36 3.46 3.36 c1.02 0 2.68 -0.16 3.58 -0.66 z M46.98 7.76 l3 0 l0 12.24 l-3 0 l0 -12.24 z M51.64 19.7 l0 -2.82 c0.24 0.06 0.54 0.12 0.88 0.16 c0.34 0.06 0.7 0.1 1.08 0.12 s0.76 0.04 1.16 0.06 s0.78 0.04 1.12 0.04 c0.94 0 1.6 -0.06 2 -0.16 c0.38 -0.1 0.58 -0.28 0.58 -0.56 c0 -0.24 -0.18 -0.42 -0.36 -0.56 c-0.66 -0.44 -1.44 -0.62 -2.22 -0.8 c-2.2 -0.44 -4.22 -1.32 -4.22 -3.84 c0 -2.98 2.82 -3.68 5.24 -3.68 c1.34 0 2.7 0.14 4 0.46 l0 2.82 c-0.2 -0.06 -0.46 -0.1 -0.78 -0.16 c-0.34 -0.04 -0.68 -0.08 -1.06 -0.12 c-0.78 -0.08 -1.52 -0.12 -2.3 -0.12 c-0.44 0 -1.36 0 -1.78 0.16 c-0.28 0.1 -0.46 0.22 -0.46 0.54 c0 0.16 0.04 0.3 0.12 0.42 c0.08 0.14 0.22 0.24 0.4 0.34 c0.54 0.3 1.24 0.48 1.84 0.62 c0.5 0.12 1 0.26 1.52 0.4 c1.76 0.48 2.92 1.46 2.92 3.34 c0 3.1 -3.08 3.76 -5.56 3.76 c-1.36 0 -2.78 -0.1 -4.12 -0.42 z M62.96 7.76 l3 0 l0 12.24 l-3 0 l0 -12.24 z M74.1 17.32 c2.18 0 3.3 -1.4 3.3 -3.44 c0 -2.16 -1.2 -3.44 -3.3 -3.44 c-2.2 0 -3.3 1.4 -3.3 3.44 c0 2.12 1.22 3.44 3.3 3.44 z M74.1 20.1 c-3.76 0 -6.3 -2.56 -6.3 -6.22 c0 -3.78 2.66 -6.22 6.3 -6.22 c3.78 0 6.3 2.54 6.3 6.22 c0 3.8 -2.64 6.22 -6.3 6.22 z M90.06 7.76 l3 0 l0 12.24 l-3 0 l-4.8 -7.16 l0 7.16 l-3 0 l0 -12.24 l3 0 l4.8 7.16 l0 -7.16 z M98.88 18.38 c0 1.02 -0.7 1.72 -1.72 1.72 s-1.74 -0.68 -1.74 -1.72 c0 -1.02 0.72 -1.74 1.74 -1.74 c1.06 0 1.72 0.68 1.72 1.74 z M105.60000000000001 7.76 l3 0 l0 12.24 l-3 0 l0 -12.24 z M118.66 7.76 l3 0 l0 12.24 l-3 0 l-4.8 -7.16 l0 7.16 l-3 0 l0 -12.24 l3 0 l4.8 7.16 l0 -7.16 z M123.24 7.76 l10.2 0 l0 2.78 l-3.6 0 l0 9.46 l-3 0 l0 -9.46 l-3.6 0 l0 -2.78 z M134.99999999999997 7.76 l9.1 0 l0 2.78 l-6.1 0 l0 1.96 l4.9 0 l0 2.78 l-4.9 0 l0 1.94 l6.1 0 l0 2.78 l-9.1 0 l0 -12.24 z M156.62 12.5 l0 6.8 c-1.42 0.54 -3.2 0.84 -4.72 0.84 c-3.9 0 -6.52 -2.34 -6.52 -6.2 c0 -4.22 3.14 -6.28 6.98 -6.28 c0.26 0 0.54 0 0.86 0.02 c0.3 0.02 0.62 0.06 0.96 0.08 c0.62 0.08 1.24 0.16 1.84 0.34 l0 3.06 c-0.22 -0.1 -0.46 -0.18 -0.74 -0.26 c-0.3 -0.06 -0.6 -0.12 -0.92 -0.18 c-0.64 -0.12 -1.32 -0.16 -1.98 -0.16 c-2.54 0 -4 0.78 -4 3.38 c0 2.54 1.34 3.3 3.62 3.3 c0.24 0 0.5 -0.02 0.78 -0.04 c0.26 -0.02 0.54 -0.04 0.84 -0.06 l0 -1.86 l-2.6 0 l0 -2.78 l5.6 0 z M161.51999999999998 10.58 l0 2.92 l2.8 0 c0.92 0 1.46 -0.54 1.46 -1.46 s-0.54 -1.46 -1.46 -1.46 l-2.8 0 z M166.06 15.48 c0.56 0.76 1.12 1.52 1.7 2.26 c0.56 0.74 1.12 1.5 1.68 2.26 l-3.66 0 c-0.72 -0.96 -1.42 -1.92 -2.12 -2.88 c-0.7 -0.94 -1.42 -1.9 -2.14 -2.86 l0 5.74 l-3 0 l0 -12.24 l5.8 0 c2.28 0 4.22 1.74 4.22 4.04 c0 1.62 -1 3.04 -2.48 3.68 z M170.68 7.76 l3 0 l0 12.24 l-3 0 l0 -12.24 z M175.16 7.76 l10.2 0 l0 2.78 l-3.6 0 l0 9.46 l-3 0 l0 -9.46 l-3.6 0 l0 -2.78 z M190.18 20 l0 -4.54 c-2.42 -0.54 -3.82 -2.54 -3.82 -4.94 l0 -2.76 l3 0 l0 2.76 c0 1.44 0.86 2.32 2.3 2.32 c1.48 0 2.3 -0.86 2.3 -2.32 l0 -2.76 l3 0 l0 2.76 c0 2.44 -1.42 4.38 -3.78 4.94 l0 4.54 l-3 0 z M202.18 18.38 c0 1.02 -0.7 1.72 -1.72 1.72 s-1.74 -0.68 -1.74 -1.72 c0 -1.02 0.72 -1.74 1.74 -1.74 c1.06 0 1.72 0.68 1.72 1.74 z M208.92000000000002 20 l0 -12.24 l5.8 0 c2.28 0 4.22 1.72 4.22 4.02 c0 2.32 -2 4.02 -4.22 4.02 l-2.8 0 l0 4.2 l-3 0 z M214.72000000000003 10.54 l-2.8 0 l0 2.48 l2.8 0 c0.7 0 1.22 -0.54 1.22 -1.24 s-0.52 -1.24 -1.22 -1.24 z M220.44000000000003 7.76 l9.1 0 l0 2.78 l-6.1 0 l0 1.96 l4.9 0 l0 2.78 l-4.9 0 l0 1.94 l6.1 0 l0 2.78 l-9.1 0 l0 -12.24 z M238.82000000000005 17.52 l-4.5 0 l-0.88 2.48 l-3.26 0 l4.9 -12.24 l3 0 l4.9 12.24 l-3.28 0 z M235.30000000000004 14.74 l2.54 0 l-1.26 -3.56 z M253.28000000000006 16.58 l0 3.08 c-1.24 0.34 -2.48 0.48 -3.76 0.48 c-3.76 0 -6.28 -2.58 -6.28 -6.24 c0 -3.76 2.62 -6.24 6.26 -6.24 c1.26 0 2.58 0.1 3.78 0.48 l0 3.08 c-0.98 -0.48 -2.52 -0.66 -3.6 -0.66 c-2.44 0 -3.44 1 -3.44 3.32 c0 2.46 1.18 3.36 3.46 3.36 c1.02 0 2.68 -0.16 3.58 -0.66 z M255.02000000000004 7.76 l9.1 0 l0 2.78 l-6.1 0 l0 1.96 l4.9 0 l0 2.78 l-4.9 0 l0 1.94 l6.1 0 l0 2.78 l-9.1 0 l0 -12.24 z M276.1 17.32 c2.18 0 3.3 -1.4 3.3 -3.44 c0 -2.16 -1.2 -3.44 -3.3 -3.44 c-2.2 0 -3.3 1.4 -3.3 3.44 c0 2.12 1.22 3.44 3.3 3.44 z M276.1 20.1 c-3.76 0 -6.3 -2.56 -6.3 -6.22 c0 -3.78 2.66 -6.22 6.3 -6.22 c3.78 0 6.3 2.54 6.3 6.22 c0 3.8 -2.64 6.22 -6.3 6.22 z M284.26000000000005 7.76 l9.1 0 l0 2.78 l-6.1 0 l0 1.96 l4.9 0 l0 2.78 l-4.9 0 l0 4.72 l-3 0 l0 -12.24 z M302.46000000000004 13.26 l0 6.74 l-3 0 l0 -12.24 l3 0 l3.82 6.76 l3.82 -6.76 l3 0 l0 12.24 l-3 0 l0 -6.74 l-2.32 3.98 l-3 0 z M315.38000000000005 7.76 l3 0 l0 12.24 l-3 0 l0 -12.24 z M328.44000000000005 7.76 l3 0 l0 12.24 l-3 0 l-4.8 -7.16 l0 7.16 l-3 0 l0 -12.24 l3 0 l4.8 7.16 l0 -7.16 z M338.0400000000001 20 l-4.3 0 l0 -12.24 l4.3 0 c3.74 0 6.3 2.44 6.3 6.12 c0 3.78 -2.7 6.12 -6.3 6.12 z M336.74000000000007 10.54 l0 6.68 l1.3 0 c2.12 0 3.3 -1.34 3.3 -3.34 c0 -0.46 -0.06 -0.88 -0.18 -1.3 c-0.52 -1.46 -1.66 -2.04 -3.12 -2.04 l-1.3 0 z M349.7200000000001 18.38 c0 1.02 -0.7 1.72 -1.72 1.72 s-1.74 -0.68 -1.74 -1.72 c0 -1.02 0.72 -1.74 1.74 -1.74 c1.06 0 1.72 0.68 1.72 1.74 z"></path></g>
			</g>
		</svg>
	